<svg width="90" height="28" viewBox="0 0 90 28" fill="none" xmlns="http://www.w3.org/2000/svg">
<path fill-rule="evenodd" clip-rule="evenodd" d="M14.1553 0H0.155273V28H28.1553V14C28.1553 6.26801 21.8873 0 14.1553 0ZM24.8254 6.41906C24.4058 6.04137 23.8497 5.85252 23.1573 5.85252H8.67898C7.83966 5.85252 7.19967 6.00989 6.75903 6.32464C6.31839 6.63938 5.98266 7.19543 5.75184 7.99279L4.83908 11.1717C4.77613 11.3815 4.74466 11.5809 4.74466 11.7697C4.74466 12.1894 4.89154 12.5041 5.1853 12.714C5.47906 12.9238 5.85676 13.0287 6.31839 13.0287C6.75903 13.0287 7.12623 12.9553 7.41999 12.8084C7.73474 12.6405 8.05998 12.3782 8.39571 12.0215L10.2842 9.94421C10.6409 9.54554 10.9661 9.27276 11.2599 9.12587C11.5746 8.95801 11.9313 8.87408 12.33 8.87408H15.2572L2.44702 22.4081C2.00637 22.8698 1.68114 23.2894 1.47131 23.6671C1.28246 24.0238 1.18803 24.391 1.18803 24.7687C1.18803 25.3982 1.40836 25.9018 1.849 26.2795C2.31063 26.6362 2.99258 26.8146 3.89485 26.8146H17.9954C18.8348 26.8146 19.4747 26.6572 19.9154 26.3424C20.356 26.0277 20.6918 25.4717 20.9226 24.6743L21.8353 21.4954C21.8983 21.2646 21.9298 21.0652 21.9298 20.8974C21.9298 20.4777 21.7829 20.1629 21.4891 19.9531C21.1954 19.7433 20.8177 19.6384 20.356 19.6384C19.9154 19.6384 19.5377 19.7223 19.2229 19.8902C18.9292 20.037 18.6144 20.2888 18.2787 20.6456L16.3902 22.7229C16.0335 23.1216 15.6978 23.4048 15.3831 23.5727C15.0893 23.7196 14.7431 23.793 14.3444 23.793H10.6304L24.2903 10.1645C25.0667 9.38816 25.4549 8.6013 25.4549 7.80394C25.4549 7.2374 25.2451 6.77577 24.8254 6.41906Z" fill="white"/>
<path d="M35.7574 26.3254C35.7574 26.5292 35.6877 26.7061 35.5483 26.8563C35.4089 26.9957 35.2373 27.0654 35.0335 27.0654H32.7812C32.2879 27.0654 31.8643 26.8938 31.5103 26.5506C31.1671 26.1967 30.9955 25.7677 30.9955 25.2636V16.9303C30.9955 16.7158 31.0652 16.5388 31.2047 16.3994C31.3441 16.26 31.5157 16.1902 31.7195 16.1902H32.1699C32.3737 16.1902 32.5453 16.26 32.6847 16.3994C32.8349 16.5388 32.9099 16.7158 32.9099 16.9303V18.539C32.9099 18.6677 32.9797 18.7321 33.1191 18.7321H35.0335C35.2373 18.7321 35.4089 18.8072 35.5483 18.9573C35.6877 19.0967 35.7574 19.2737 35.7574 19.4882V19.9226C35.7574 20.1049 35.6877 20.2765 35.5483 20.4374C35.3874 20.5768 35.2158 20.6465 35.0335 20.6465H33.1191C32.9797 20.6465 32.9099 20.7216 32.9099 20.8717V24.958C32.9099 25.0974 32.9797 25.1671 33.1191 25.1671H35.0335C35.2373 25.1671 35.4089 25.2368 35.5483 25.3762C35.6877 25.5157 35.7574 25.6926 35.7574 25.9071V26.3254ZM42.6418 19.9226C42.6418 20.1263 42.5721 20.2979 42.4326 20.4374C42.2932 20.5768 42.1216 20.6465 41.9178 20.6465H40.0034C39.864 20.6465 39.7943 20.7216 39.7943 20.8717V26.3254C39.7943 26.5292 39.7192 26.7061 39.5691 26.8563C39.4296 26.9957 39.258 27.0654 39.0543 27.0654H38.6038C38.4 27.0654 38.2284 26.9957 38.089 26.8563C37.9496 26.7061 37.8799 26.5292 37.8799 26.3254V20.5339C37.8799 20.2014 37.9603 19.9011 38.1212 19.633C38.2821 19.3541 38.4966 19.1343 38.7647 18.9734C39.0328 18.8125 39.3331 18.7321 39.6656 18.7321H41.9178C42.1216 18.7321 42.2932 18.8072 42.4326 18.9573C42.5721 19.0967 42.6418 19.2737 42.6418 19.4882V19.9226ZM50.5718 25.2636C50.5718 25.7677 50.3948 26.1967 50.0409 26.5506C49.6977 26.8938 49.2794 27.0654 48.7861 27.0654H46.5499C46.0566 27.0654 45.6329 26.8938 45.279 26.5506C44.9251 26.1967 44.7481 25.7677 44.7481 25.2636V19.4882C44.7481 19.2737 44.8178 19.0967 44.9573 18.9573C45.1074 18.8072 45.2844 18.7321 45.4881 18.7321H45.9386C46.1424 18.7321 46.314 18.8072 46.4534 18.9573C46.5928 19.0967 46.6625 19.2737 46.6625 19.4882V24.958C46.6625 25.0116 46.684 25.0598 46.7269 25.1027C46.7805 25.1456 46.8341 25.1671 46.8878 25.1671H48.4482C48.5019 25.1671 48.5501 25.1456 48.593 25.1027C48.6467 25.0598 48.6735 25.0116 48.6735 24.958V19.4882C48.6735 19.2737 48.7432 19.0967 48.8826 18.9573C49.022 18.8072 49.1936 18.7321 49.3974 18.7321H49.8479C50.0516 18.7321 50.2232 18.8072 50.3627 18.9573C50.5021 19.0967 50.5718 19.2737 50.5718 19.4882V25.2636ZM58.5087 25.2636C58.5087 25.7677 58.3318 26.1967 57.9779 26.5506C57.6347 26.8938 57.2164 27.0654 56.723 27.0654H54.4869C53.9935 27.0654 53.5699 26.8938 53.2159 26.5506C52.862 26.1967 52.6851 25.7677 52.6851 25.2636V20.5339C52.6851 20.2014 52.7655 19.9011 52.9264 19.633C53.098 19.3541 53.3178 19.1343 53.586 18.9734C53.8541 18.8125 54.1544 18.7321 54.4869 18.7321H56.723C57.0555 18.7321 57.3558 18.8125 57.6239 18.9734C57.8921 19.1343 58.1066 19.3541 58.2674 19.633C58.4283 19.9011 58.5087 20.2014 58.5087 20.5339V21.3704C58.5087 21.5742 58.439 21.7512 58.2996 21.9013C58.1602 22.0408 57.9886 22.1105 57.7848 22.1105H57.3344C57.1306 22.1105 56.959 22.0408 56.8196 21.9013C56.6801 21.7512 56.6104 21.5742 56.6104 21.3704V20.8717C56.6104 20.8074 56.5836 20.7537 56.53 20.7108C56.4871 20.6679 56.4388 20.6465 56.3852 20.6465H54.8247C54.7711 20.6465 54.7174 20.6679 54.6638 20.7108C54.6209 20.7537 54.5995 20.8074 54.5995 20.8717V24.958C54.5995 25.0116 54.6209 25.0598 54.6638 25.1027C54.7174 25.1456 54.7711 25.1671 54.8247 25.1671H56.3852C56.4388 25.1671 56.4871 25.1456 56.53 25.1027C56.5836 25.0598 56.6104 25.0116 56.6104 24.958V24.4592C56.6104 24.2555 56.6801 24.0839 56.8196 23.9444C56.959 23.7943 57.1306 23.7192 57.3344 23.7192H57.7848C57.9886 23.7192 58.1602 23.7943 58.2996 23.9444C58.439 24.0839 58.5087 24.2555 58.5087 24.4592V25.2636ZM65.4 26.3254C65.4 26.5292 65.3303 26.7061 65.1909 26.8563C65.0514 26.9957 64.8798 27.0654 64.6761 27.0654H62.4238C61.9304 27.0654 61.5068 26.8938 61.1529 26.5506C60.8097 26.1967 60.6381 25.7677 60.6381 25.2636V16.9303C60.6381 16.7158 60.7078 16.5388 60.8472 16.3994C60.9866 16.26 61.1582 16.1902 61.362 16.1902H61.8125C62.0162 16.1902 62.1878 16.26 62.3273 16.3994C62.4774 16.5388 62.5525 16.7158 62.5525 16.9303V18.539C62.5525 18.6677 62.6222 18.7321 62.7616 18.7321H64.6761C64.8798 18.7321 65.0514 18.8072 65.1909 18.9573C65.3303 19.0967 65.4 19.2737 65.4 19.4882V19.9226C65.4 20.1049 65.3303 20.2765 65.1909 20.4374C65.03 20.5768 64.8584 20.6465 64.6761 20.6465H62.7616C62.6222 20.6465 62.5525 20.7216 62.5525 20.8717V24.958C62.5525 25.0974 62.6222 25.1671 62.7616 25.1671H64.6761C64.8798 25.1671 65.0514 25.2368 65.1909 25.3762C65.3303 25.5157 65.4 25.6926 65.4 25.9071V26.3254ZM73.33 25.2636C73.33 25.7677 73.1531 26.1967 72.7991 26.5506C72.4559 26.8938 72.0377 27.0654 71.5443 27.0654H69.3081C68.8148 27.0654 68.3911 26.8938 68.0372 26.5506C67.6833 26.1967 67.5063 25.7677 67.5063 25.2636V19.4882C67.5063 19.2737 67.576 19.0967 67.7155 18.9573C67.8656 18.8072 68.0426 18.7321 68.2464 18.7321H68.6968C68.9006 18.7321 69.0722 18.8072 69.2116 18.9573C69.351 19.0967 69.4208 19.2737 69.4208 19.4882V24.958C69.4208 25.0116 69.4422 25.0598 69.4851 25.1027C69.5387 25.1456 69.5924 25.1671 69.646 25.1671H71.2065C71.2601 25.1671 71.3084 25.1456 71.3513 25.1027C71.4049 25.0598 71.4317 25.0116 71.4317 24.958V19.4882C71.4317 19.2737 71.5014 19.0967 71.6408 18.9573C71.7803 18.8072 71.9519 18.7321 72.1556 18.7321H72.6061C72.8099 18.7321 72.9815 18.8072 73.1209 18.9573C73.2603 19.0967 73.33 19.2737 73.33 19.4882V25.2636ZM80.2213 19.9226C80.2213 20.1263 80.1516 20.2979 80.0121 20.4374C79.8727 20.5768 79.7011 20.6465 79.4973 20.6465H77.5829C77.4435 20.6465 77.3738 20.7216 77.3738 20.8717V26.3254C77.3738 26.5292 77.2987 26.7061 77.1486 26.8563C77.0091 26.9957 76.8375 27.0654 76.6338 27.0654H76.1833C75.9795 27.0654 75.8079 26.9957 75.6685 26.8563C75.5291 26.7061 75.4594 26.5292 75.4594 26.3254V20.5339C75.4594 20.2014 75.5398 19.9011 75.7007 19.633C75.8615 19.3541 76.076 19.1343 76.3442 18.9734C76.6123 18.8125 76.9126 18.7321 77.2451 18.7321H79.4973C79.7011 18.7321 79.8727 18.8072 80.0121 18.9573C80.1516 19.0967 80.2213 19.2737 80.2213 19.4882V19.9226ZM88.1513 22.2874C88.1513 22.6092 88.0709 22.9095 87.91 23.1883C87.7491 23.4565 87.5346 23.6763 87.2665 23.8479C86.9984 24.0088 86.6981 24.0892 86.3656 24.0892H84.4673C84.4136 24.0892 84.36 24.1107 84.3064 24.1536C84.2635 24.1858 84.242 24.2287 84.242 24.2823V24.958C84.242 25.0116 84.2635 25.0598 84.3064 25.1027C84.36 25.1456 84.4136 25.1671 84.4673 25.1671H86.3656C86.5694 25.1671 86.741 25.2368 86.8804 25.3762C87.0305 25.5157 87.1056 25.6926 87.1056 25.9071V26.3254C87.1056 26.5292 87.0305 26.7061 86.8804 26.8563C86.741 26.9957 86.5694 27.0654 86.3656 27.0654H84.1294C83.6361 27.0654 83.2124 26.8938 82.8585 26.5506C82.5046 26.1967 82.3276 25.7677 82.3276 25.2636V20.5339C82.3276 20.2014 82.408 19.9011 82.5689 19.633C82.7405 19.3649 82.9604 19.1504 83.2285 18.9895C83.4966 18.8179 83.7969 18.7321 84.1294 18.7321H86.3656C86.6981 18.7321 86.9984 18.8179 87.2665 18.9895C87.5346 19.1504 87.7491 19.3649 87.91 19.633C88.0709 19.9011 88.1513 20.2014 88.1513 20.5339V22.2874ZM86.253 21.9657V20.8717C86.253 20.8074 86.2262 20.7537 86.1725 20.7108C86.1296 20.6679 86.0814 20.6465 86.0277 20.6465H84.4673C84.4136 20.6465 84.36 20.6679 84.3064 20.7108C84.2635 20.7537 84.242 20.8074 84.242 20.8717V21.9657C84.242 22.0086 84.2635 22.0515 84.3064 22.0944C84.36 22.1373 84.4136 22.1587 84.4673 22.1587H86.0277C86.0814 22.1587 86.1296 22.1373 86.1725 22.0944C86.2262 22.0515 86.253 22.0086 86.253 21.9657Z" fill="white"/>
</svg>
